' Copyright (C) 2019 - present Juergen Zimmermann, Hochschule Karlsruhe
'
' This program is free software: you can redistribute it and/or modify
' it under the terms of the GNU General Public License as published by
' the Free Software Foundation, either version 3 of the License, or
' (at your option) any later version.
'
' This program is distributed in the hope that it will be useful,
' but WITHOUT ANY WARRANTY; without even the implied warranty of
' MERCHANTABILITY or FITNESS FOR A PARTICULAR PURPOSE.  See the
' GNU General Public License for more details.
'
' You should have received a copy of the GNU General Public License
' along with this program.  If not, see <https://www.gnu.org/licenses/>.
@startuml Anwendungskern

!pragma useNewPackage
skinparam classAttributeIconSize 0
skinparam componentStyle uml2

package mongoose {
  class Schema

  class "model()" as model
  hide model circle
}

package auto.entity {
  class "validateAuto()" as validateAuto
  hide validateAuto circle

  class AutoModel
  hide AutoModel circle

  AutoModel ..> Schema
  AutoModel ..> model
  AutoModel ..> validateAuto

  AutoData ..> AutoTyp
  AutoData ..> Marke

  enum AutoTyp {
    LIMOUSINE
    COUPE
  }

  enum Marke {
    BMW
    AUDI
  }

  interface AutoData <<entity>> {
    + _id?: string
    + __v?: number
    + createdAt?: number
    + updatedAt?: number
    + modell: string
    + klimabilanz?: number
    + typ?: AutoTyp
    + marke: Marke
    + preis: number
    + rabatt?: number
    + lieferbar?: boolean
    + datum?: Date
    + modellnr: string
    + homepage?: string
    + spezifikationen?: Array<string>
    + herstellungsorte: any
  }
}

hide empty members

footer (c) Johannes Lauinger

@enduml
